<mxfile host="app.diagrams.net" modified="2024-04-15T03:50:12.298Z" agent="Mozilla/5.0 (Windows NT 10.0; Win64; x64) AppleWebKit/537.36 (KHTML, like Gecko) Chrome/123.0.0.0 Safari/537.36" etag="h_27xhPzv2CVpAxD65GI" version="24.2.5" type="device">
  <diagram name="Página-1" id="egrFjmWI-UJNjW5RmXR0">
    <mxGraphModel dx="954" dy="1761" grid="1" gridSize="10" guides="1" tooltips="1" connect="1" arrows="1" fold="1" page="1" pageScale="1" pageWidth="827" pageHeight="1169" math="0" shadow="0">
      <root>
        <mxCell id="0" />
        <mxCell id="1" parent="0" />
        <mxCell id="POeLBxjwD15rbcfgWVZ4-6" value="Usuarios" style="rounded=0;whiteSpace=wrap;html=1;" parent="1" vertex="1">
          <mxGeometry x="200" y="160" width="120" height="60" as="geometry" />
        </mxCell>
        <mxCell id="POeLBxjwD15rbcfgWVZ4-11" value="" style="endArrow=none;html=1;rounded=0;entryX=0;entryY=1;entryDx=0;entryDy=0;" parent="1" target="POeLBxjwD15rbcfgWVZ4-6" edge="1">
          <mxGeometry width="50" height="50" relative="1" as="geometry">
            <mxPoint x="200" y="380" as="sourcePoint" />
            <mxPoint x="410" y="280" as="targetPoint" />
          </mxGeometry>
        </mxCell>
        <mxCell id="POeLBxjwD15rbcfgWVZ4-13" value="" style="endArrow=none;html=1;rounded=0;" parent="1" edge="1">
          <mxGeometry width="50" height="50" relative="1" as="geometry">
            <mxPoint x="200" y="300" as="sourcePoint" />
            <mxPoint x="240" y="300" as="targetPoint" />
          </mxGeometry>
        </mxCell>
        <mxCell id="POeLBxjwD15rbcfgWVZ4-14" value="Nome" style="ellipse;whiteSpace=wrap;html=1;" parent="1" vertex="1">
          <mxGeometry x="240" y="280" width="100" height="40" as="geometry" />
        </mxCell>
        <mxCell id="POeLBxjwD15rbcfgWVZ4-15" value="" style="endArrow=none;html=1;rounded=0;" parent="1" edge="1">
          <mxGeometry width="50" height="50" relative="1" as="geometry">
            <mxPoint x="200" y="340" as="sourcePoint" />
            <mxPoint x="240" y="340" as="targetPoint" />
          </mxGeometry>
        </mxCell>
        <mxCell id="POeLBxjwD15rbcfgWVZ4-16" value="Email" style="ellipse;whiteSpace=wrap;html=1;" parent="1" vertex="1">
          <mxGeometry x="240" y="320" width="100" height="40" as="geometry" />
        </mxCell>
        <mxCell id="POeLBxjwD15rbcfgWVZ4-17" value="" style="endArrow=none;html=1;rounded=0;" parent="1" edge="1">
          <mxGeometry width="50" height="50" relative="1" as="geometry">
            <mxPoint x="200" y="380" as="sourcePoint" />
            <mxPoint x="240" y="380" as="targetPoint" />
          </mxGeometry>
        </mxCell>
        <mxCell id="POeLBxjwD15rbcfgWVZ4-18" value="Senha" style="ellipse;whiteSpace=wrap;html=1;" parent="1" vertex="1">
          <mxGeometry x="240" y="360" width="100" height="40" as="geometry" />
        </mxCell>
        <mxCell id="POeLBxjwD15rbcfgWVZ4-19" value="Transação" style="rounded=0;whiteSpace=wrap;html=1;" parent="1" vertex="1">
          <mxGeometry x="680" y="160" width="120" height="60" as="geometry" />
        </mxCell>
        <mxCell id="POeLBxjwD15rbcfgWVZ4-20" value="" style="endArrow=none;html=1;rounded=0;entryX=0;entryY=1;entryDx=0;entryDy=0;" parent="1" target="POeLBxjwD15rbcfgWVZ4-19" edge="1">
          <mxGeometry width="50" height="50" relative="1" as="geometry">
            <mxPoint x="680" y="550" as="sourcePoint" />
            <mxPoint x="890" y="280" as="targetPoint" />
          </mxGeometry>
        </mxCell>
        <mxCell id="POeLBxjwD15rbcfgWVZ4-21" value="" style="endArrow=none;html=1;rounded=0;" parent="1" edge="1">
          <mxGeometry width="50" height="50" relative="1" as="geometry">
            <mxPoint x="680" y="350" as="sourcePoint" />
            <mxPoint x="720" y="350" as="targetPoint" />
          </mxGeometry>
        </mxCell>
        <mxCell id="POeLBxjwD15rbcfgWVZ4-22" value="tipo_transacao" style="ellipse;whiteSpace=wrap;html=1;" parent="1" vertex="1">
          <mxGeometry x="720" y="330" width="100" height="40" as="geometry" />
        </mxCell>
        <mxCell id="POeLBxjwD15rbcfgWVZ4-23" value="" style="endArrow=none;html=1;rounded=0;" parent="1" edge="1">
          <mxGeometry width="50" height="50" relative="1" as="geometry">
            <mxPoint x="680" y="390" as="sourcePoint" />
            <mxPoint x="720" y="390" as="targetPoint" />
          </mxGeometry>
        </mxCell>
        <mxCell id="POeLBxjwD15rbcfgWVZ4-24" value="valor" style="ellipse;whiteSpace=wrap;html=1;" parent="1" vertex="1">
          <mxGeometry x="720" y="370" width="100" height="40" as="geometry" />
        </mxCell>
        <mxCell id="POeLBxjwD15rbcfgWVZ4-25" value="" style="endArrow=none;html=1;rounded=0;" parent="1" edge="1">
          <mxGeometry width="50" height="50" relative="1" as="geometry">
            <mxPoint x="680" y="430" as="sourcePoint" />
            <mxPoint x="720" y="430" as="targetPoint" />
          </mxGeometry>
        </mxCell>
        <mxCell id="POeLBxjwD15rbcfgWVZ4-26" value="data_hora" style="ellipse;whiteSpace=wrap;html=1;" parent="1" vertex="1">
          <mxGeometry x="720" y="410" width="100" height="40" as="geometry" />
        </mxCell>
        <mxCell id="POeLBxjwD15rbcfgWVZ4-29" value="" style="endArrow=none;html=1;rounded=0;" parent="1" edge="1">
          <mxGeometry width="50" height="50" relative="1" as="geometry">
            <mxPoint x="200" y="260" as="sourcePoint" />
            <mxPoint x="240" y="260" as="targetPoint" />
          </mxGeometry>
        </mxCell>
        <mxCell id="POeLBxjwD15rbcfgWVZ4-30" value="Id" style="ellipse;whiteSpace=wrap;html=1;" parent="1" vertex="1">
          <mxGeometry x="240" y="240" width="100" height="40" as="geometry" />
        </mxCell>
        <mxCell id="POeLBxjwD15rbcfgWVZ4-31" value="id" style="ellipse;whiteSpace=wrap;html=1;" parent="1" vertex="1">
          <mxGeometry x="720" y="250" width="100" height="40" as="geometry" />
        </mxCell>
        <mxCell id="POeLBxjwD15rbcfgWVZ4-33" value="" style="endArrow=none;html=1;rounded=0;exitX=1;exitY=0.5;exitDx=0;exitDy=0;" parent="1" source="POeLBxjwD15rbcfgWVZ4-22" edge="1">
          <mxGeometry width="50" height="50" relative="1" as="geometry">
            <mxPoint x="830" y="335" as="sourcePoint" />
            <mxPoint x="850" y="330" as="targetPoint" />
          </mxGeometry>
        </mxCell>
        <mxCell id="POeLBxjwD15rbcfgWVZ4-35" value="receita" style="ellipse;whiteSpace=wrap;html=1;" parent="1" vertex="1">
          <mxGeometry x="850" y="310" width="100" height="40" as="geometry" />
        </mxCell>
        <mxCell id="POeLBxjwD15rbcfgWVZ4-36" value="despesa" style="ellipse;whiteSpace=wrap;html=1;" parent="1" vertex="1">
          <mxGeometry x="850" y="350" width="100" height="40" as="geometry" />
        </mxCell>
        <mxCell id="POeLBxjwD15rbcfgWVZ4-37" value="" style="endArrow=none;html=1;rounded=0;entryX=0;entryY=0.5;entryDx=0;entryDy=0;" parent="1" target="POeLBxjwD15rbcfgWVZ4-36" edge="1">
          <mxGeometry width="50" height="50" relative="1" as="geometry">
            <mxPoint x="820" y="350" as="sourcePoint" />
            <mxPoint x="860" y="340" as="targetPoint" />
          </mxGeometry>
        </mxCell>
        <mxCell id="POeLBxjwD15rbcfgWVZ4-38" value="" style="endArrow=none;html=1;rounded=0;" parent="1" edge="1">
          <mxGeometry width="50" height="50" relative="1" as="geometry">
            <mxPoint x="680" y="269" as="sourcePoint" />
            <mxPoint x="720" y="269" as="targetPoint" />
          </mxGeometry>
        </mxCell>
        <mxCell id="POeLBxjwD15rbcfgWVZ4-39" value="&lt;font style=&quot;font-size: 11px;&quot;&gt;forma_pagamento&lt;/font&gt;" style="ellipse;whiteSpace=wrap;html=1;" parent="1" vertex="1">
          <mxGeometry x="720" y="450" width="100" height="40" as="geometry" />
        </mxCell>
        <mxCell id="POeLBxjwD15rbcfgWVZ4-40" value="&lt;span style=&quot;font-size: 11px;&quot;&gt;nota_adicional&lt;/span&gt;" style="ellipse;whiteSpace=wrap;html=1;" parent="1" vertex="1">
          <mxGeometry x="720" y="490" width="100" height="40" as="geometry" />
        </mxCell>
        <mxCell id="POeLBxjwD15rbcfgWVZ4-42" value="" style="endArrow=none;html=1;rounded=0;" parent="1" edge="1">
          <mxGeometry width="50" height="50" relative="1" as="geometry">
            <mxPoint x="680" y="509.5" as="sourcePoint" />
            <mxPoint x="720" y="509.5" as="targetPoint" />
          </mxGeometry>
        </mxCell>
        <mxCell id="POeLBxjwD15rbcfgWVZ4-43" value="" style="endArrow=none;html=1;rounded=0;" parent="1" edge="1">
          <mxGeometry width="50" height="50" relative="1" as="geometry">
            <mxPoint x="680" y="469.5" as="sourcePoint" />
            <mxPoint x="720" y="469.5" as="targetPoint" />
          </mxGeometry>
        </mxCell>
        <mxCell id="POeLBxjwD15rbcfgWVZ4-44" value="&lt;span style=&quot;font-size: 11px;&quot;&gt;categoria_id&lt;/span&gt;" style="ellipse;whiteSpace=wrap;html=1;" parent="1" vertex="1">
          <mxGeometry x="720" y="530" width="100" height="40" as="geometry" />
        </mxCell>
        <mxCell id="POeLBxjwD15rbcfgWVZ4-45" value="" style="endArrow=none;html=1;rounded=0;" parent="1" edge="1">
          <mxGeometry width="50" height="50" relative="1" as="geometry">
            <mxPoint x="680" y="550" as="sourcePoint" />
            <mxPoint x="720" y="549.5" as="targetPoint" />
          </mxGeometry>
        </mxCell>
        <mxCell id="POeLBxjwD15rbcfgWVZ4-46" value="categoria" style="rounded=0;whiteSpace=wrap;html=1;" parent="1" vertex="1">
          <mxGeometry x="1110" y="160" width="120" height="60" as="geometry" />
        </mxCell>
        <mxCell id="POeLBxjwD15rbcfgWVZ4-47" value="" style="endArrow=none;html=1;rounded=0;entryX=0;entryY=1;entryDx=0;entryDy=0;" parent="1" target="POeLBxjwD15rbcfgWVZ4-46" edge="1">
          <mxGeometry width="50" height="50" relative="1" as="geometry">
            <mxPoint x="1110" y="345" as="sourcePoint" />
            <mxPoint x="1320" y="280" as="targetPoint" />
          </mxGeometry>
        </mxCell>
        <mxCell id="POeLBxjwD15rbcfgWVZ4-48" value="" style="endArrow=none;html=1;rounded=0;" parent="1" edge="1">
          <mxGeometry width="50" height="50" relative="1" as="geometry">
            <mxPoint x="1110" y="300" as="sourcePoint" />
            <mxPoint x="1150" y="300" as="targetPoint" />
          </mxGeometry>
        </mxCell>
        <mxCell id="POeLBxjwD15rbcfgWVZ4-49" value="Nome" style="ellipse;whiteSpace=wrap;html=1;" parent="1" vertex="1">
          <mxGeometry x="1150" y="280" width="100" height="40" as="geometry" />
        </mxCell>
        <mxCell id="POeLBxjwD15rbcfgWVZ4-50" value="" style="endArrow=none;html=1;rounded=0;" parent="1" edge="1">
          <mxGeometry width="50" height="50" relative="1" as="geometry">
            <mxPoint x="1110" y="340" as="sourcePoint" />
            <mxPoint x="1150" y="340" as="targetPoint" />
          </mxGeometry>
        </mxCell>
        <mxCell id="POeLBxjwD15rbcfgWVZ4-51" value="descricao" style="ellipse;whiteSpace=wrap;html=1;" parent="1" vertex="1">
          <mxGeometry x="1150" y="320" width="100" height="40" as="geometry" />
        </mxCell>
        <mxCell id="POeLBxjwD15rbcfgWVZ4-54" value="" style="endArrow=none;html=1;rounded=0;" parent="1" edge="1">
          <mxGeometry width="50" height="50" relative="1" as="geometry">
            <mxPoint x="1110" y="260" as="sourcePoint" />
            <mxPoint x="1150" y="260" as="targetPoint" />
          </mxGeometry>
        </mxCell>
        <mxCell id="POeLBxjwD15rbcfgWVZ4-55" value="Id" style="ellipse;whiteSpace=wrap;html=1;" parent="1" vertex="1">
          <mxGeometry x="1150" y="240" width="100" height="40" as="geometry" />
        </mxCell>
        <mxCell id="POeLBxjwD15rbcfgWVZ4-56" value="meta" style="rounded=0;whiteSpace=wrap;html=1;" parent="1" vertex="1">
          <mxGeometry x="680" y="-160" width="120" height="60" as="geometry" />
        </mxCell>
        <mxCell id="POeLBxjwD15rbcfgWVZ4-57" value="" style="endArrow=none;html=1;rounded=0;entryX=0;entryY=1;entryDx=0;entryDy=0;" parent="1" target="POeLBxjwD15rbcfgWVZ4-56" edge="1">
          <mxGeometry width="50" height="50" relative="1" as="geometry">
            <mxPoint x="680" y="100" as="sourcePoint" />
            <mxPoint x="890" y="-40" as="targetPoint" />
          </mxGeometry>
        </mxCell>
        <mxCell id="POeLBxjwD15rbcfgWVZ4-58" value="" style="endArrow=none;html=1;rounded=0;" parent="1" edge="1">
          <mxGeometry width="50" height="50" relative="1" as="geometry">
            <mxPoint x="680" y="-20" as="sourcePoint" />
            <mxPoint x="720" y="-20" as="targetPoint" />
          </mxGeometry>
        </mxCell>
        <mxCell id="POeLBxjwD15rbcfgWVZ4-59" value="valor_meta" style="ellipse;whiteSpace=wrap;html=1;" parent="1" vertex="1">
          <mxGeometry x="720" y="-40" width="100" height="40" as="geometry" />
        </mxCell>
        <mxCell id="POeLBxjwD15rbcfgWVZ4-60" value="" style="endArrow=none;html=1;rounded=0;" parent="1" edge="1">
          <mxGeometry width="50" height="50" relative="1" as="geometry">
            <mxPoint x="680" y="20" as="sourcePoint" />
            <mxPoint x="720" y="20" as="targetPoint" />
          </mxGeometry>
        </mxCell>
        <mxCell id="POeLBxjwD15rbcfgWVZ4-61" value="data_vigencia" style="ellipse;whiteSpace=wrap;html=1;" parent="1" vertex="1">
          <mxGeometry x="720" width="100" height="40" as="geometry" />
        </mxCell>
        <mxCell id="POeLBxjwD15rbcfgWVZ4-62" value="" style="endArrow=none;html=1;rounded=0;" parent="1" edge="1">
          <mxGeometry width="50" height="50" relative="1" as="geometry">
            <mxPoint x="680" y="-60" as="sourcePoint" />
            <mxPoint x="720" y="-60" as="targetPoint" />
          </mxGeometry>
        </mxCell>
        <mxCell id="POeLBxjwD15rbcfgWVZ4-63" value="Id" style="ellipse;whiteSpace=wrap;html=1;" parent="1" vertex="1">
          <mxGeometry x="720" y="-80" width="100" height="40" as="geometry" />
        </mxCell>
        <mxCell id="POeLBxjwD15rbcfgWVZ4-64" value="contem" style="rhombus;whiteSpace=wrap;html=1;" parent="1" vertex="1">
          <mxGeometry x="440" y="155" width="80" height="80" as="geometry" />
        </mxCell>
        <mxCell id="POeLBxjwD15rbcfgWVZ4-65" value="" style="endArrow=none;html=1;rounded=0;entryX=0;entryY=0.5;entryDx=0;entryDy=0;exitX=0.983;exitY=0.633;exitDx=0;exitDy=0;exitPerimeter=0;" parent="1" source="POeLBxjwD15rbcfgWVZ4-6" target="POeLBxjwD15rbcfgWVZ4-64" edge="1">
          <mxGeometry width="50" height="50" relative="1" as="geometry">
            <mxPoint x="320" y="195" as="sourcePoint" />
            <mxPoint x="370" y="145" as="targetPoint" />
          </mxGeometry>
        </mxCell>
        <mxCell id="POeLBxjwD15rbcfgWVZ4-66" value="" style="endArrow=none;html=1;rounded=0;exitX=1;exitY=0.5;exitDx=0;exitDy=0;" parent="1" source="POeLBxjwD15rbcfgWVZ4-64" edge="1">
          <mxGeometry width="50" height="50" relative="1" as="geometry">
            <mxPoint x="544" y="205" as="sourcePoint" />
            <mxPoint x="680" y="195" as="targetPoint" />
          </mxGeometry>
        </mxCell>
        <mxCell id="POeLBxjwD15rbcfgWVZ4-67" value="" style="endArrow=none;html=1;rounded=0;entryX=0;entryY=0.5;entryDx=0;entryDy=0;exitX=1;exitY=0.5;exitDx=0;exitDy=0;" parent="1" source="POeLBxjwD15rbcfgWVZ4-72" target="POeLBxjwD15rbcfgWVZ4-46" edge="1">
          <mxGeometry width="50" height="50" relative="1" as="geometry">
            <mxPoint x="1020" y="210" as="sourcePoint" />
            <mxPoint x="1070" y="160" as="targetPoint" />
          </mxGeometry>
        </mxCell>
        <mxCell id="POeLBxjwD15rbcfgWVZ4-69" value="1" style="text;html=1;align=center;verticalAlign=middle;whiteSpace=wrap;rounded=0;" parent="1" vertex="1">
          <mxGeometry x="354" y="155" width="60" height="30" as="geometry" />
        </mxCell>
        <mxCell id="POeLBxjwD15rbcfgWVZ4-70" value="N" style="text;html=1;align=center;verticalAlign=middle;whiteSpace=wrap;rounded=0;" parent="1" vertex="1">
          <mxGeometry x="580" y="160" width="60" height="30" as="geometry" />
        </mxCell>
        <mxCell id="POeLBxjwD15rbcfgWVZ4-72" value="contem" style="rhombus;whiteSpace=wrap;html=1;" parent="1" vertex="1">
          <mxGeometry x="920" y="150" width="80" height="80" as="geometry" />
        </mxCell>
        <mxCell id="POeLBxjwD15rbcfgWVZ4-73" value="" style="endArrow=none;html=1;rounded=0;exitX=1;exitY=0.5;exitDx=0;exitDy=0;" parent="1" target="POeLBxjwD15rbcfgWVZ4-72" edge="1">
          <mxGeometry width="50" height="50" relative="1" as="geometry">
            <mxPoint x="800" y="190" as="sourcePoint" />
            <mxPoint x="900" y="200" as="targetPoint" />
          </mxGeometry>
        </mxCell>
        <mxCell id="POeLBxjwD15rbcfgWVZ4-75" value="1" style="text;html=1;align=center;verticalAlign=middle;whiteSpace=wrap;rounded=0;" parent="1" vertex="1">
          <mxGeometry x="840" y="150" width="60" height="30" as="geometry" />
        </mxCell>
        <mxCell id="POeLBxjwD15rbcfgWVZ4-76" value="N" style="text;html=1;align=center;verticalAlign=middle;whiteSpace=wrap;rounded=0;" parent="1" vertex="1">
          <mxGeometry x="1020" y="150" width="60" height="30" as="geometry" />
        </mxCell>
        <mxCell id="y9nDA7qnq3AyLQbDRmra-1" value="usuario_id" style="ellipse;whiteSpace=wrap;html=1;" parent="1" vertex="1">
          <mxGeometry x="720" y="290" width="100" height="40" as="geometry" />
        </mxCell>
        <mxCell id="y9nDA7qnq3AyLQbDRmra-2" value="" style="endArrow=none;html=1;rounded=0;" parent="1" edge="1">
          <mxGeometry width="50" height="50" relative="1" as="geometry">
            <mxPoint x="680" y="310" as="sourcePoint" />
            <mxPoint x="720" y="310" as="targetPoint" />
          </mxGeometry>
        </mxCell>
        <mxCell id="y9nDA7qnq3AyLQbDRmra-3" value="contem" style="rhombus;whiteSpace=wrap;html=1;" parent="1" vertex="1">
          <mxGeometry x="130" y="-170" width="80" height="80" as="geometry" />
        </mxCell>
        <mxCell id="y9nDA7qnq3AyLQbDRmra-4" value="" style="endArrow=none;html=1;rounded=0;entryX=0;entryY=0.5;entryDx=0;entryDy=0;" parent="1" edge="1">
          <mxGeometry width="50" height="50" relative="1" as="geometry">
            <mxPoint x="170" y="189" as="sourcePoint" />
            <mxPoint x="200" y="189" as="targetPoint" />
          </mxGeometry>
        </mxCell>
        <mxCell id="y9nDA7qnq3AyLQbDRmra-5" value="" style="endArrow=none;html=1;rounded=0;exitX=0.5;exitY=1;exitDx=0;exitDy=0;" parent="1" source="y9nDA7qnq3AyLQbDRmra-3" edge="1">
          <mxGeometry width="50" height="50" relative="1" as="geometry">
            <mxPoint x="90" y="-90" as="sourcePoint" />
            <mxPoint x="170" y="190" as="targetPoint" />
          </mxGeometry>
        </mxCell>
        <mxCell id="y9nDA7qnq3AyLQbDRmra-8" value="" style="endArrow=none;html=1;rounded=0;entryX=0;entryY=0.5;entryDx=0;entryDy=0;exitX=1;exitY=0.5;exitDx=0;exitDy=0;" parent="1" source="y9nDA7qnq3AyLQbDRmra-3" target="POeLBxjwD15rbcfgWVZ4-56" edge="1">
          <mxGeometry width="50" height="50" relative="1" as="geometry">
            <mxPoint x="267" y="-120" as="sourcePoint" />
            <mxPoint x="827" y="-120" as="targetPoint" />
          </mxGeometry>
        </mxCell>
        <mxCell id="y9nDA7qnq3AyLQbDRmra-9" value="1" style="text;html=1;align=center;verticalAlign=middle;whiteSpace=wrap;rounded=0;" parent="1" vertex="1">
          <mxGeometry x="190" y="-90" width="60" height="30" as="geometry" />
        </mxCell>
        <mxCell id="y9nDA7qnq3AyLQbDRmra-10" value="N" style="text;html=1;align=center;verticalAlign=middle;whiteSpace=wrap;rounded=0;" parent="1" vertex="1">
          <mxGeometry x="590" y="-170" width="60" height="30" as="geometry" />
        </mxCell>
        <mxCell id="y9nDA7qnq3AyLQbDRmra-12" value="pertence" style="rhombus;whiteSpace=wrap;html=1;" parent="1" vertex="1">
          <mxGeometry x="1130" y="-170" width="80" height="80" as="geometry" />
        </mxCell>
        <mxCell id="y9nDA7qnq3AyLQbDRmra-13" value="" style="endArrow=none;html=1;rounded=0;exitX=0.5;exitY=1;exitDx=0;exitDy=0;entryX=0.5;entryY=0;entryDx=0;entryDy=0;" parent="1" source="y9nDA7qnq3AyLQbDRmra-12" target="POeLBxjwD15rbcfgWVZ4-46" edge="1">
          <mxGeometry width="50" height="50" relative="1" as="geometry">
            <mxPoint x="1170" y="-80" as="sourcePoint" />
            <mxPoint x="1170" y="150" as="targetPoint" />
          </mxGeometry>
        </mxCell>
        <mxCell id="y9nDA7qnq3AyLQbDRmra-14" value="" style="endArrow=none;html=1;rounded=0;entryX=0;entryY=0.5;entryDx=0;entryDy=0;exitX=1;exitY=0.5;exitDx=0;exitDy=0;" parent="1" source="POeLBxjwD15rbcfgWVZ4-56" target="y9nDA7qnq3AyLQbDRmra-12" edge="1">
          <mxGeometry width="50" height="50" relative="1" as="geometry">
            <mxPoint x="810" y="-165" as="sourcePoint" />
            <mxPoint x="1130" y="-155" as="targetPoint" />
          </mxGeometry>
        </mxCell>
        <mxCell id="y9nDA7qnq3AyLQbDRmra-15" value="N" style="text;html=1;align=center;verticalAlign=middle;whiteSpace=wrap;rounded=0;" parent="1" vertex="1">
          <mxGeometry x="840" y="-170" width="60" height="30" as="geometry" />
        </mxCell>
        <mxCell id="y9nDA7qnq3AyLQbDRmra-16" value="1" style="text;html=1;align=center;verticalAlign=middle;whiteSpace=wrap;rounded=0;" parent="1" vertex="1">
          <mxGeometry x="1181" y="120" width="60" height="30" as="geometry" />
        </mxCell>
        <mxCell id="y9nDA7qnq3AyLQbDRmra-17" value="categoria_id" style="ellipse;whiteSpace=wrap;html=1;" parent="1" vertex="1">
          <mxGeometry x="720" y="40" width="100" height="40" as="geometry" />
        </mxCell>
        <mxCell id="y9nDA7qnq3AyLQbDRmra-19" value="" style="endArrow=none;html=1;rounded=0;" parent="1" edge="1">
          <mxGeometry width="50" height="50" relative="1" as="geometry">
            <mxPoint x="680" y="59.5" as="sourcePoint" />
            <mxPoint x="720" y="59.5" as="targetPoint" />
          </mxGeometry>
        </mxCell>
        <mxCell id="eVswGPIDbMmSPSl50mVy-1" value="usuario_id" style="ellipse;whiteSpace=wrap;html=1;" vertex="1" parent="1">
          <mxGeometry x="727" y="80" width="100" height="40" as="geometry" />
        </mxCell>
        <mxCell id="eVswGPIDbMmSPSl50mVy-2" value="" style="endArrow=none;html=1;rounded=0;" edge="1" parent="1">
          <mxGeometry width="50" height="50" relative="1" as="geometry">
            <mxPoint x="680" y="100" as="sourcePoint" />
            <mxPoint x="727" y="99.5" as="targetPoint" />
          </mxGeometry>
        </mxCell>
      </root>
    </mxGraphModel>
  </diagram>
</mxfile>
